Results
version=1
nRows=4
nColumns=213
inDegrees=yes
endheader
time	platform_rx	platform_ry	platform_rz	platform_ty	pelvis_tilt	pelvis_list	pelvis_rotation	pelvis_tx	pelvis_ty	pelvis_tz	hip_flexion_r	hip_adduction_r	hip_rotation_r	knee_angle_r	knee_angle_r_beta	ankle_angle_r	subtalar_angle_r	mtp_angle_r	hip_flexion_l	hip_adduction_l	hip_rotation_l	knee_angle_l	knee_angle_l_beta	ankle_angle_l	subtalar_angle_l	mtp_angle_l	lumbar_extension	lumbar_bending	lumbar_rotation	arm_flex_r	arm_add_r	arm_rot_r	elbow_flex_r	pro_sup_r	wrist_flex_r	wrist_dev_r	arm_flex_l	arm_add_l	arm_rot_l	elbow_flex_l	pro_sup_l	wrist_flex_l	wrist_dev_l	platform_rx_u	platform_ry_u	platform_rz_u	platform_ty_u	pelvis_tilt_u	pelvis_list_u	pelvis_rotation_u	pelvis_tx_u	pelvis_ty_u	pelvis_tz_u	hip_flexion_r_u	hip_adduction_r_u	hip_rotation_r_u	knee_angle_r_u	knee_angle_r_beta_u	ankle_angle_r_u	subtalar_angle_r_u	mtp_angle_r_u	hip_flexion_l_u	hip_adduction_l_u	hip_rotation_l_u	knee_angle_l_u	knee_angle_l_beta_u	ankle_angle_l_u	subtalar_angle_l_u	mtp_angle_l_u	lumbar_extension_u	lumbar_bending_u	lumbar_rotation_u	arm_flex_r_u	arm_add_r_u	arm_rot_r_u	elbow_flex_r_u	pro_sup_r_u	wrist_flex_r_u	wrist_dev_r_u	arm_flex_l_u	arm_add_l_u	arm_rot_l_u	elbow_flex_l_u	pro_sup_l_u	wrist_flex_l_u	wrist_dev_l_u	addbrev_r.activation	addlong_r.activation	addlong_r.fiber_length	addmagDist_r.activation	addmagIsch_r.activation	addmagIsch_r.fiber_length	addmagMid_r.activation	addmagProx_r.activation	bflh_r.activation	bflh_r.fiber_length	bfsh_r.activation	edl_r.activation	edl_r.fiber_length	ehl_r.activation	ehl_r.fiber_length	fdl_r.activation	fdl_r.fiber_length	fhl_r.activation	fhl_r.fiber_length	gaslat_r.activation	gaslat_r.fiber_length	gasmed_r.activation	gasmed_r.fiber_length	glmax1_r.activation	glmax2_r.activation	glmax3_r.activation	glmed1_r.activation	glmed2_r.activation	glmed3_r.activation	glmin1_r.activation	glmin2_r.activation	glmin3_r.activation	glmin3_r.fiber_length	grac_r.activation	iliacus_r.activation	perbrev_r.activation	perbrev_r.fiber_length	perlong_r.activation	perlong_r.fiber_length	piri_r.activation	piri_r.fiber_length	psoas_r.activation	recfem_r.activation	recfem_r.fiber_length	sart_r.activation	semimem_r.activation	semimem_r.fiber_length	semiten_r.activation	semiten_r.fiber_length	soleus_r.activation	soleus_r.fiber_length	tfl_r.activation	tfl_r.fiber_length	tibant_r.activation	tibant_r.fiber_length	tibpost_r.activation	tibpost_r.fiber_length	vasint_r.activation	vasint_r.fiber_length	vaslat_r.activation	vaslat_r.fiber_length	vasmed_r.activation	vasmed_r.fiber_length	addbrev_l.activation	addlong_l.activation	addlong_l.fiber_length	addmagDist_l.activation	addmagIsch_l.activation	addmagIsch_l.fiber_length	addmagMid_l.activation	addmagProx_l.activation	bflh_l.activation	bflh_l.fiber_length	bfsh_l.activation	edl_l.activation	edl_l.fiber_length	ehl_l.activation	ehl_l.fiber_length	fdl_l.activation	fdl_l.fiber_length	fhl_l.activation	fhl_l.fiber_length	gaslat_l.activation	gaslat_l.fiber_length	gasmed_l.activation	gasmed_l.fiber_length	glmax1_l.activation	glmax2_l.activation	glmax3_l.activation	glmed1_l.activation	glmed2_l.activation	glmed3_l.activation	glmin1_l.activation	glmin2_l.activation	glmin3_l.activation	glmin3_l.fiber_length	grac_l.activation	iliacus_l.activation	perbrev_l.activation	perbrev_l.fiber_length	perlong_l.activation	perlong_l.fiber_length	piri_l.activation	piri_l.fiber_length	psoas_l.activation	recfem_l.activation	recfem_l.fiber_length	sart_l.activation	semimem_l.activation	semimem_l.fiber_length	semiten_l.activation	semiten_l.fiber_length	soleus_l.activation	soleus_l.fiber_length	tfl_l.activation	tfl_l.fiber_length	tibant_l.activation	tibant_l.fiber_length	tibpost_l.activation	tibpost_l.fiber_length	vasint_l.activation	vasint_l.fiber_length	vaslat_l.activation	vaslat_l.fiber_length	vasmed_l.activation	vasmed_l.fiber_length
      0.00456371	     20.00000000	      0.00000000	      0.00000000	      0.25000000	    -27.84427118	     -0.00000003	     -0.00000001	     -0.03496760	      0.51136658	     -0.00000000	    107.74525301	    -18.07803104	      3.07009135	    110.95176235	    110.95176235	     30.01039944	     -0.00000000	      0.00000000	    107.74525327	    -18.07802768	      3.07009133	    110.95176185	    110.95176185	     30.01039929	     -0.00000000	      0.00000000	     -0.32846237	      0.00000004	      0.00000000	     90.01144187	     -0.00340475	     89.82985412	      0.16158394	      0.15330671	      0.00000000	      0.00000000	     90.01149393	     -0.00340218	     89.82221688	      0.16158266	      0.15330692	      0.00000000	      0.00000000	      0.00000000	      0.00000000	     -0.00000000	     -0.00000000	    113.12406531	     -0.00001357	     -0.00000255	      0.01385557	      0.16097238	     -0.00000002	   -112.08737862	     -6.59232982	     28.11894412	    -22.97627409	    -22.97627409	   -853.01698278	     -0.00000000	      0.00000000	   -112.08736347	     -6.59232289	     28.11897633	    -22.97626741	    -22.97626741	   -853.01698082	     -0.00000000	     -0.00000000	   -143.63786190	      0.00001754	      0.00000119	     32.65084802	     -1.47458308	     -0.94723279	      4.12291948	      0.51536664	     -0.00000000	      0.00000000	     32.65059857	     -1.47441924	     -0.94725784	      4.12236296	      0.51546063	     -0.00000000	      0.00000000	      0.01000000	      0.01000000	      0.10408027	      0.01000000	      0.01000000	      0.22662988	      0.01000000	      0.01000000	      0.01000000	      0.12216605	      0.01000000	      0.01000000	      0.05037205	      0.01000000	      0.05774336	      0.01000000	      0.04771286	      0.01000000	      0.05655919	      0.01000000	      0.04984808	      0.01000000	      0.03571669	      0.01000000	      0.01000000	      0.01000000	      0.01000000	      0.01000000	      0.01000000	      0.01000000	      0.01000000	      0.01000000	      0.04296373	      0.01000000	      0.01000000	      0.01000000	      0.05088123	      0.01000000	      0.05768121	      0.01000000	      0.03282046	      0.01000000	      0.01000000	      0.05086981	      0.01000000	      0.01000000	      0.07670378	      0.01000000	      0.22848997	      0.01000000	      0.06173545	      0.01000000	      0.02401564	      0.01000000	      0.04390194	      0.01000000	      0.04218969	      0.01000000	      0.14071098	      0.01000000	      0.13713870	      0.01000000	      0.13429934	      0.01000000	      0.01000000	      0.10408026	      0.01000000	      0.01000000	      0.22662988	      0.01000000	      0.01000000	      0.01000000	      0.12216605	      0.01000000	      0.01000000	      0.05037205	      0.01000000	      0.05774336	      0.01000000	      0.04771286	      0.01000000	      0.05655919	      0.01000000	      0.04984808	      0.01000000	      0.03571669	      0.01000000	      0.01000000	      0.01000000	      0.01000000	      0.01000000	      0.01000000	      0.01000000	      0.01000000	      0.01000000	      0.04296373	      0.01000000	      0.01000000	      0.01000000	      0.05088123	      0.01000000	      0.05768121	      0.01000000	      0.03282046	      0.01000000	      0.01000000	      0.05086981	      0.01000000	      0.01000000	      0.07670378	      0.01000000	      0.22848997	      0.01000000	      0.06173545	      0.01000000	      0.02401564	      0.01000000	      0.04390194	      0.01000000	      0.04218969	      0.01000000	      0.14071098	      0.01000000	      0.13713870	      0.01000000	      0.13429934
      0.00517824	     20.00000000	      0.00000000	      0.00000000	      0.25000000	    -27.77011261	     -0.00000004	     -0.00000001	     -0.03495858	      0.51147222	     -0.00000000	    107.67167437	    -18.08235436	      3.08840577	    110.93638843	    110.93638843	     29.45357180	     -0.00000000	      0.00000000	    107.67167465	    -18.08235100	      3.08840578	    110.93638793	    110.93638793	     29.45357165	     -0.00000000	     -0.00000000	     -0.42262724	      0.00000005	      0.00000000	     90.03285020	     -0.00437167	     89.82923293	      0.16428743	      0.15364520	      0.00000000	      0.00000000	     90.03290209	     -0.00436899	     89.82159568	      0.16428579	      0.15364548	     -0.00000000	      0.00000000	      0.00000000	      0.00000000	      0.00000000	     -0.00000000	    128.22151381	     -0.00001539	     -0.00000286	      0.01550769	      0.18282899	     -0.00000002	   -127.38505101	     -7.47831769	     31.46530957	    -27.11182688	    -27.11182688	   -958.82280342	     -0.00000000	      0.00000000	   -127.38503383	     -7.47830985	     31.46534608	    -27.11181931	    -27.11181931	   -958.82280113	     -0.00000000	     -0.00000000	   -162.81758217	      0.00001987	      0.00000137	     37.02266026	     -1.67233251	     -1.07456500	      4.67584012	      0.58683598	     -0.00000000	      0.00000000	     37.02237731	     -1.67214642	     -1.07459347	      4.67520820	      0.58694277	     -0.00000000	      0.00000000	      0.01000000	      0.01000000	      0.10405695	      0.01000000	      0.01000000	      0.22657671	      0.01000000	      0.01000000	      0.01000000	      0.12215123	      0.01000000	      0.01000000	      0.05066256	      0.01000000	      0.05807518	      0.01000000	      0.04770471	      0.01000000	      0.05652242	      0.01000000	      0.04973884	      0.01000000	      0.03562863	      0.01000000	      0.01000000	      0.01000000	      0.01000000	      0.01000000	      0.01000000	      0.01000000	      0.01000000	      0.01000000	      0.04294448	      0.01000000	      0.01000000	      0.01000000	      0.05085779	      0.01000000	      0.05764814	      0.01000000	      0.03280550	      0.01000000	      0.01000000	      0.05088437	      0.01000000	      0.01000000	      0.07669320	      0.01000000	      0.22846575	      0.01000000	      0.06156226	      0.01000000	      0.02401564	      0.01000000	      0.04426523	      0.01000000	      0.04217195	      0.01000000	      0.14070620	      0.01000000	      0.13713415	      0.01000000	      0.13429512	      0.01000000	      0.01000000	      0.10405695	      0.01000000	      0.01000000	      0.22657671	      0.01000000	      0.01000000	      0.01000000	      0.12215123	      0.01000000	      0.01000000	      0.05066256	      0.01000000	      0.05807518	      0.01000000	      0.04770471	      0.01000000	      0.05652242	      0.01000000	      0.04973884	      0.01000000	      0.03562863	      0.01000000	      0.01000000	      0.01000000	      0.01000000	      0.01000000	      0.01000000	      0.01000000	      0.01000000	      0.01000000	      0.04294448	      0.01000000	      0.01000000	      0.01000000	      0.05085779	      0.01000000	      0.05764814	      0.01000000	      0.03280550	      0.01000000	      0.01000000	      0.05088437	      0.01000000	      0.01000000	      0.07669320	      0.01000000	      0.22846575	      0.01000000	      0.06156226	      0.01000000	      0.02401564	      0.01000000	      0.04426523	      0.01000000	      0.04217195	      0.01000000	      0.14070620	      0.01000000	      0.13713415	      0.01000000	      0.13429512
      0.00593255	     20.00000000	      0.00000000	      0.00000000	      0.25000000	    -27.66641667	     -0.00000005	     -0.00000001	     -0.03494615	      0.51162028	     -0.00000000	    107.56847717	    -18.08840566	      3.11363486	    110.91388388	    110.91388388	     28.68234895	     -0.00000000	      0.00000000	    107.56847745	    -18.08840229	      3.11363490	    110.91388339	    110.91388339	     28.68234881	     -0.00000000	     -0.00000000	     -0.55430658	      0.00000007	      0.00000000	     90.06279993	     -0.00572484	     89.82836305	      0.16807094	      0.15412246	     -0.00000000	      0.00000000	     90.06285160	     -0.00572202	     89.82072577	      0.16806878	      0.15412283	     -0.00000000	      0.00000000	      0.00000000	      0.00000000	      0.00000000	     -0.00000000	    146.71623015	     -0.00001763	     -0.00000325	      0.01743779	      0.20976845	     -0.00000003	   -146.25657662	     -8.56584952	     35.39331831	    -32.64421158	    -32.64421158	  -1085.37148855	     -0.00000000	      0.00000000	   -146.25655693	     -8.56584061	     35.39336016	    -32.64420290	    -32.64420290	  -1085.37148585	     -0.00000000	     -0.00000000	   -186.31513620	      0.00002274	      0.00000163	     42.38722220	     -1.91566911	     -1.23215979	      5.35630076	      0.67961821	     -0.00000000	      0.00000000	     42.38689793	     -1.91545515	     -1.23219255	      5.35557456	      0.67974104	     -0.00000000	      0.00000000	      0.01000000	      0.01000000	      0.10402341	      0.01000000	      0.01000000	      0.22659983	      0.01000000	      0.01000000	      0.01000000	      0.12212993	      0.01000000	      0.01000000	      0.05107490	      0.01000000	      0.05854350	      0.01000000	      0.04769180	      0.01000000	      0.05646419	      0.01000000	      0.04960485	      0.01000000	      0.03552070	      0.01000000	      0.01000000	      0.01000000	      0.01000000	      0.01000000	      0.01000000	      0.01000000	      0.01000000	      0.01000000	      0.04291721	      0.01000000	      0.01000000	      0.01000000	      0.05082273	      0.01000000	      0.05759683	      0.01000000	      0.03278376	      0.01000000	      0.01000000	      0.05090740	      0.01000000	      0.01000000	      0.07667745	      0.01000000	      0.22843159	      0.01000000	      0.06131834	      0.01000000	      0.02401564	      0.01000000	      0.04477729	      0.01000000	      0.04214355	      0.01000000	      0.14069916	      0.01000000	      0.13712742	      0.01000000	      0.13428888	      0.01000000	      0.01000000	      0.10402341	      0.01000000	      0.01000000	      0.22659983	      0.01000000	      0.01000000	      0.01000000	      0.12212993	      0.01000000	      0.01000000	      0.05107490	      0.01000000	      0.05854350	      0.01000000	      0.04769180	      0.01000000	      0.05646419	      0.01000000	      0.04960485	      0.01000000	      0.03552070	      0.01000000	      0.01000000	      0.01000000	      0.01000000	      0.01000000	      0.01000000	      0.01000000	      0.01000000	      0.01000000	      0.04291721	      0.01000000	      0.01000000	      0.01000000	      0.05082273	      0.01000000	      0.05759683	      0.01000000	      0.03278376	      0.01000000	      0.01000000	      0.05090740	      0.01000000	      0.01000000	      0.07667745	      0.01000000	      0.22843159	      0.01000000	      0.06131834	      0.01000000	      0.02401564	      0.01000000	      0.04477729	      0.01000000	      0.04214355	      0.01000000	      0.14069916	      0.01000000	      0.13712742	      0.01000000	      0.13428888
      0.00618270	     20.00000000	      0.00000000	      0.00000000	      0.25000000	    -27.62895208	     -0.00000006	     -0.00000001	     -0.03494171	      0.51167387	     -0.00000000	    107.53110812	    -18.09059356	      3.12264557	    110.90547514	    110.90547514	     28.40570328	     -0.00000000	      0.00000000	    107.53110841	    -18.09059019	      3.12264562	    110.90547465	    110.90547465	     28.40570314	     -0.00000000	     -0.00000000	     -0.60188346	      0.00000007	      0.00000000	     90.07362486	     -0.00621413	     89.82804827	      0.16943901	      0.15429645	     -0.00000000	      0.00000000	     90.07367644	     -0.00621125	     89.82041099	      0.16943666	      0.15429685	     -0.00000000	      0.00000000	      0.00000000	      0.00000000	      0.00000000	     -0.00000000	    152.83015055	     -0.00001837	     -0.00000335	      0.01804918	      0.21871594	     -0.00000003	   -152.52916906	     -8.92733241	     36.64733613	    -34.59761467	    -34.59761467	  -1126.45908739	     -0.00000000	      0.00000000	   -152.52914855	     -8.92732310	     36.64737972	    -34.59760563	    -34.59760563	  -1126.45908454	     -0.00000000	     -0.00000000	   -194.08361972	      0.00002368	      0.00000169	     44.16318062	     -1.99640098	     -1.28467392	      5.58207626	      0.71163021	     -0.00000000	      0.00000000	     44.16284261	     -1.99617763	     -1.28470811	      5.58131841	      0.71175845	     -0.00000000	      0.00000000	      0.01000000	      0.01000000	      0.10401109	      0.01000000	      0.01000000	      0.22652408	      0.01000000	      0.01000000	      0.01000000	      0.12212211	      0.01000000	      0.01000000	      0.05122506	      0.01000000	      0.05871347	      0.01000000	      0.04768672	      0.01000000	      0.05644159	      0.01000000	      0.04956044	      0.01000000	      0.03548496	      0.01000000	      0.01000000	      0.01000000	      0.01000000	      0.01000000	      0.01000000	      0.01000000	      0.01000000	      0.01000000	      0.04290729	      0.01000000	      0.01000000	      0.01000000	      0.05080956	      0.01000000	      0.05757717	      0.01000000	      0.03277575	      0.01000000	      0.01000000	      0.05091640	      0.01000000	      0.01000000	      0.07667154	      0.01000000	      0.22841921	      0.01000000	      0.06122969	      0.01000000	      0.02401564	      0.01000000	      0.04496355	      0.01000000	      0.04213237	      0.01000000	      0.14069652	      0.01000000	      0.13712489	      0.01000000	      0.13428654	      0.01000000	      0.01000000	      0.10401109	      0.01000000	      0.01000000	      0.22652408	      0.01000000	      0.01000000	      0.01000000	      0.12212212	      0.01000000	      0.01000000	      0.05122506	      0.01000000	      0.05871347	      0.01000000	      0.04768672	      0.01000000	      0.05644159	      0.01000000	      0.04956044	      0.01000000	      0.03548496	      0.01000000	      0.01000000	      0.01000000	      0.01000000	      0.01000000	      0.01000000	      0.01000000	      0.01000000	      0.01000000	      0.04290729	      0.01000000	      0.01000000	      0.01000000	      0.05080956	      0.01000000	      0.05757717	      0.01000000	      0.03277575	      0.01000000	      0.01000000	      0.05091640	      0.01000000	      0.01000000	      0.07667154	      0.01000000	      0.22841921	      0.01000000	      0.06122969	      0.01000000	      0.02401564	      0.01000000	      0.04496355	      0.01000000	      0.04213237	      0.01000000	      0.14069652	      0.01000000	      0.13712489	      0.01000000	      0.13428654
